# xmcd
#
# Track frame offsets: 
#        150
#        12602
#        25983
#        37086
#        49118
#        60153
#        72129
#        82590
#        94932
#        107481
#        121489
#        133743
#        145549
#        160997
#        171470
#        182908
#        194019
#        206760
#        220584
#        237591
#
# Disc length: 3318 seconds
#
# Revision: 2
# Processed by: cddbd v1.5.2PL0 Copyright (c) Steve Scherf et al.
# Submitted via: ExactAudioCopy v0.99pb5
#
DISCID=210cf414
DTITLE=Various Artist - Crooners And Divas Complete - Vol 4 (Country Crooners
DTITLE=and Divas)
DYEAR=1900
DGENRE=Country
TTITLE0=Jim Reeves - I Love You Because
TTITLE1=Crystal Gayle - Dreaming My Dreams With You
TTITLE2=Freddy Hart - Easy Lovin'
TTITLE3=Skeeter Davis - The End Of The World
TTITLE4=Marty Robbins - I Don't Know Why
TTITLE5=Don Gibson - I Can't Stop Loving You
TTITLE6=Willie Nelson - Blue Eyes Crying In The Rain
TTITLE7=Glen Campbell - By The Time I Get To Phoenix
TTITLE8=Jean Shepard - Think I'll Go Somewhere And Cry Myself To Sleep
TTITLE9=Charley Pride - The Green Green Grass Of Home
TTITLE10=Jeanne Black - He'll Have To Stay
TTITLE11=Charlie Rich - The Most Beautiful Girl In The World
TTITLE12=Crystal Gayle - When I Dream
TTITLE13=Kris Kristofferson - Help Me Make It Through The Night
TTITLE14=Marty Robbins - Harbour Lights
TTITLE15=Jim Reeves - Moonlight And Roses
TTITLE16=Don Gibson - Almost Persuaded
TTITLE17=Willie Nelson - Funny How Time Slips Away
TTITLE18=Glen Campbell - If You Could Read My Mind
TTITLE19=Bobby Darin - You're The Reason I'm Living
EXTD=
EXTT0=
EXTT1=
EXTT2=
EXTT3=
EXTT4=
EXTT5=
EXTT6=
EXTT7=
EXTT8=
EXTT9=
EXTT10=
EXTT11=
EXTT12=
EXTT13=
EXTT14=
EXTT15=
EXTT16=
EXTT17=
EXTT18=
EXTT19=
PLAYORDER=
